<?xml version="1.0" encoding="utf-8"?>
<!-- Generator: Adobe Illustrator 22.0.1, SVG Export Plug-In . SVG Version: 6.00 Build 0)  -->
<svg version="1.1" id="Camada_1" xmlns="http://www.w3.org/2000/svg" xmlns:xlink="http://www.w3.org/1999/xlink" x="0px" y="0px"
	 viewBox="0 0 164.6 60" style="enable-background:new 0 0 164.6 60;" xml:space="preserve">
<style type="text/css">
	.st0{fill:#FFFFFF;}
</style>
<g>
	<g>
		<path class="st0" d="M6.4,32.1v24.8h49.3V32.1h6.4L31.1,0L17,14.5V9.6h1c0.6,0,1-0.5,1-1V5.8c0-0.6-0.5-1-1-1H8c-0.6,0-1,0.5-1,1
			v2.8c0,0.6,0.5,1,1,1h1v13.2l-9,9.3H6.4z M9.5,53.8V32.1l21.6-23l21.6,23v21.8H9.5z"/>
	</g>
	<g>
		<rect x="24.9" y="31.9" class="st0" width="5.2" height="5.3"/>
	</g>
	<g>
		<rect x="32" y="31.9" class="st0" width="5.2" height="5.3"/>
	</g>
	<g>
		<rect x="32" y="39" class="st0" width="5.2" height="5.3"/>
	</g>
	<g>
		<rect x="24.9" y="39" class="st0" width="5.2" height="5.3"/>
	</g>
</g>
<g>
	<path class="st0" d="M62.6,52.9c0-0.3,0-0.7,0.1-1c0.1-0.3,0.2-0.6,0.3-0.9c0.1-0.3,0.3-0.5,0.5-0.7c0.2-0.2,0.4-0.4,0.7-0.6
		s0.5-0.3,0.8-0.4s0.6-0.1,0.9-0.1s0.6,0,0.9,0.1s0.6,0.2,0.8,0.4s0.5,0.3,0.7,0.6c0.2,0.2,0.4,0.5,0.5,0.7c0.1,0.3,0.3,0.6,0.3,0.9
		c0.1,0.3,0.1,0.6,0.1,1s0,0.7-0.1,1s-0.2,0.6-0.3,0.9s-0.3,0.5-0.5,0.7c-0.2,0.2-0.4,0.4-0.7,0.6s-0.5,0.3-0.8,0.4
		s-0.6,0.1-0.9,0.1s-0.6,0-0.9-0.1s-0.6-0.2-0.8-0.4s-0.5-0.3-0.7-0.6c-0.2-0.2-0.4-0.5-0.5-0.7s-0.3-0.6-0.3-0.9
		S62.6,53.2,62.6,52.9z M63.1,52.9c0,0.4,0.1,0.8,0.2,1.2s0.4,0.7,0.6,1s0.6,0.5,0.9,0.7S65.6,56,66,56s0.8-0.1,1.1-0.2
		s0.7-0.4,0.9-0.7s0.5-0.6,0.6-1s0.2-0.8,0.2-1.2c0-0.4-0.1-0.8-0.2-1.2c-0.2-0.4-0.4-0.7-0.6-1s-0.6-0.5-0.9-0.6
		c-0.4-0.2-0.7-0.2-1.1-0.2s-0.8,0.1-1.1,0.2c-0.4,0.2-0.7,0.4-0.9,0.6s-0.5,0.6-0.6,1C63.2,52,63.1,52.5,63.1,52.9z M67.6,53.5
		c0,0.3,0,0.5-0.1,0.7s-0.2,0.4-0.3,0.5s-0.3,0.2-0.5,0.3s-0.4,0.1-0.7,0.1c-0.3,0-0.5,0-0.7-0.1c-0.2-0.1-0.4-0.2-0.5-0.4
		s-0.3-0.4-0.3-0.6s-0.1-0.5-0.1-0.8v-0.6c0-0.3,0-0.5,0.1-0.8s0.2-0.4,0.3-0.6c0.1-0.2,0.3-0.3,0.5-0.4c0.2-0.1,0.4-0.1,0.7-0.1
		c0.2,0,0.5,0,0.7,0.1c0.2,0.1,0.4,0.2,0.5,0.3c0.1,0.1,0.2,0.3,0.3,0.5c0.1,0.2,0.1,0.4,0.1,0.7h-0.7c0-0.3-0.1-0.6-0.2-0.7
		s-0.4-0.2-0.7-0.2c-0.2,0-0.3,0-0.4,0.1c-0.1,0.1-0.2,0.1-0.3,0.3c-0.1,0.1-0.1,0.2-0.2,0.4c0,0.2-0.1,0.3-0.1,0.5v0.6
		c0,0.2,0,0.4,0.1,0.5c0,0.2,0.1,0.3,0.2,0.4s0.2,0.2,0.3,0.3c0.1,0.1,0.3,0.1,0.4,0.1c0.3,0,0.5-0.1,0.7-0.2
		c0.2-0.1,0.2-0.4,0.2-0.7H67.6z"/>
	<path class="st0" d="M77.7,56.5H73v-0.7l2.3-2.6c0.2-0.2,0.4-0.4,0.5-0.6s0.3-0.4,0.3-0.5s0.1-0.3,0.2-0.4s0-0.3,0-0.4
		c0-0.2,0-0.3-0.1-0.5c-0.1-0.2-0.1-0.3-0.2-0.4s-0.2-0.2-0.4-0.3C75.6,50,75.4,50,75.2,50c-0.2,0-0.5,0-0.6,0.1
		c-0.2,0.1-0.3,0.2-0.4,0.3s-0.2,0.3-0.3,0.5c-0.1,0.2-0.1,0.4-0.1,0.6h-0.9c0-0.3,0-0.6,0.1-0.9c0.1-0.3,0.2-0.5,0.4-0.7
		s0.4-0.4,0.7-0.5c0.3-0.1,0.6-0.2,1-0.2c0.3,0,0.6,0,0.9,0.1c0.3,0.1,0.5,0.2,0.7,0.4s0.3,0.4,0.4,0.6c0.1,0.2,0.1,0.5,0.1,0.8
		c0,0.2,0,0.4-0.1,0.6s-0.2,0.4-0.3,0.6c-0.1,0.2-0.3,0.4-0.4,0.6s-0.3,0.4-0.5,0.6l-1.9,2.1h3.6V56.5z"/>
	<path class="st0" d="M83.1,53.4c0,0.6-0.1,1.1-0.2,1.5s-0.3,0.7-0.4,1s-0.4,0.4-0.7,0.5s-0.6,0.2-0.9,0.2c-0.3,0-0.7-0.1-0.9-0.2
		s-0.5-0.3-0.7-0.5s-0.3-0.6-0.5-1s-0.2-0.9-0.2-1.5v-1.1c0-0.6,0.1-1.1,0.2-1.5s0.3-0.7,0.5-1s0.4-0.4,0.7-0.5s0.6-0.2,0.9-0.2
		c0.3,0,0.7,0.1,0.9,0.2s0.5,0.3,0.7,0.5s0.3,0.6,0.4,1s0.2,0.9,0.2,1.5V53.4z M82.2,52.2c0-0.4,0-0.7-0.1-1
		c-0.1-0.3-0.1-0.5-0.3-0.7c-0.1-0.2-0.3-0.3-0.4-0.4C81.3,50,81.1,50,80.9,50c-0.2,0-0.4,0-0.6,0.1c-0.2,0.1-0.3,0.2-0.4,0.4
		c-0.1,0.2-0.2,0.4-0.3,0.7c-0.1,0.3-0.1,0.6-0.1,1v1.4c0,0.4,0,0.7,0.1,1c0.1,0.3,0.1,0.5,0.3,0.7c0.1,0.2,0.3,0.3,0.4,0.4
		c0.2,0.1,0.4,0.1,0.6,0.1c0.2,0,0.4,0,0.6-0.1c0.2-0.1,0.3-0.2,0.4-0.4c0.1-0.2,0.2-0.4,0.3-0.7c0.1-0.3,0.1-0.6,0.1-1V52.2z"/>
	<path class="st0" d="M87.2,56.5h-0.9v-6l-1.8,0.7v-0.8l2.6-1h0.1V56.5z"/>
	<path class="st0" d="M94.5,49.8l-2.9,6.6h-0.9l2.9-6.4h-3.8v-0.7h4.8V49.8z"/>
	<path class="st0" d="M102.1,54.6h-3l-0.7,1.9h-1l2.7-7.1h0.8l2.7,7.1h-1L102.1,54.6z M99.4,53.8h2.4l-1.2-3.3L99.4,53.8z"/>
	<path class="st0" d="M105.6,56.5h-0.9v-7.5h0.9V56.5z"/>
	<path class="st0" d="M110.3,55.9c-0.2,0.2-0.4,0.3-0.6,0.5s-0.6,0.2-0.9,0.2c-0.3,0-0.5,0-0.7-0.1c-0.2-0.1-0.4-0.2-0.5-0.3
		s-0.3-0.4-0.4-0.6c-0.1-0.2-0.1-0.5-0.1-0.9v-3.4h0.9v3.4c0,0.2,0,0.4,0.1,0.6c0.1,0.2,0.1,0.3,0.2,0.4c0.1,0.1,0.2,0.2,0.3,0.2
		s0.2,0.1,0.4,0.1c0.4,0,0.7-0.1,0.9-0.2c0.2-0.1,0.4-0.3,0.5-0.6v-3.9h0.9v5.3h-0.9L110.3,55.9z"/>
	<path class="st0" d="M112.3,53.8c0-0.4,0-0.8,0.1-1.1c0.1-0.3,0.2-0.6,0.4-0.9c0.2-0.2,0.4-0.4,0.7-0.6c0.3-0.1,0.5-0.2,0.9-0.2
		c0.3,0,0.6,0.1,0.9,0.2s0.5,0.3,0.6,0.5l0-0.6h0.8v5.2c0,0.3-0.1,0.7-0.2,0.9c-0.1,0.3-0.3,0.5-0.5,0.7s-0.4,0.3-0.7,0.4
		s-0.6,0.1-0.9,0.1c-0.1,0-0.3,0-0.5,0c-0.2,0-0.4-0.1-0.5-0.2c-0.2-0.1-0.4-0.2-0.5-0.3c-0.2-0.1-0.3-0.3-0.4-0.4l0.5-0.5
		c0.1,0.1,0.2,0.3,0.3,0.3c0.1,0.1,0.2,0.2,0.4,0.2c0.1,0.1,0.2,0.1,0.4,0.1c0.1,0,0.2,0,0.4,0c0.2,0,0.4,0,0.6-0.1s0.3-0.2,0.4-0.3
		c0.1-0.1,0.2-0.3,0.3-0.4c0.1-0.2,0.1-0.4,0.1-0.6v-0.5c-0.2,0.2-0.4,0.4-0.6,0.5c-0.2,0.1-0.5,0.2-0.9,0.2c-0.3,0-0.6-0.1-0.9-0.2
		c-0.3-0.1-0.5-0.3-0.7-0.6c-0.2-0.2-0.3-0.5-0.4-0.9c-0.1-0.3-0.1-0.7-0.1-1.1V53.8z M113.2,53.9c0,0.3,0,0.5,0.1,0.7
		c0.1,0.2,0.1,0.4,0.2,0.6c0.1,0.2,0.3,0.3,0.4,0.4c0.2,0.1,0.4,0.2,0.6,0.2c0.2,0,0.3,0,0.4-0.1c0.1,0,0.2-0.1,0.3-0.2
		c0.1-0.1,0.2-0.2,0.3-0.2c0.1-0.1,0.1-0.2,0.2-0.3v-2.4c-0.1-0.1-0.1-0.2-0.2-0.3c-0.1-0.1-0.2-0.2-0.3-0.2
		c-0.1-0.1-0.2-0.1-0.3-0.2c-0.1,0-0.3-0.1-0.4-0.1c-0.2,0-0.5,0.1-0.6,0.2s-0.3,0.2-0.4,0.4c-0.1,0.2-0.2,0.4-0.3,0.6
		c-0.1,0.2-0.1,0.5-0.1,0.7V53.9z"/>
	<path class="st0" d="M121.4,55.9c-0.2,0.2-0.4,0.3-0.6,0.5s-0.6,0.2-0.9,0.2c-0.3,0-0.5,0-0.7-0.1c-0.2-0.1-0.4-0.2-0.5-0.3
		s-0.3-0.4-0.4-0.6c-0.1-0.2-0.1-0.5-0.1-0.9v-3.4h0.9v3.4c0,0.2,0,0.4,0.1,0.6c0.1,0.2,0.1,0.3,0.2,0.4c0.1,0.1,0.2,0.2,0.3,0.2
		s0.2,0.1,0.4,0.1c0.4,0,0.7-0.1,0.9-0.2c0.2-0.1,0.4-0.3,0.5-0.6v-3.9h0.9v5.3h-0.9L121.4,55.9z"/>
	<path class="st0" d="M125.9,56.5c-0.4,0-0.7-0.1-1-0.2c-0.3-0.1-0.6-0.3-0.8-0.5s-0.4-0.5-0.5-0.8s-0.2-0.7-0.2-1v-0.2
		c0-0.4,0.1-0.8,0.2-1.2c0.1-0.3,0.3-0.6,0.5-0.9s0.5-0.4,0.7-0.5c0.3-0.1,0.6-0.2,0.9-0.2c0.4,0,0.7,0.1,1,0.2
		c0.3,0.1,0.5,0.3,0.7,0.5c0.2,0.2,0.3,0.5,0.4,0.8s0.1,0.7,0.1,1v0.4h-3.6c0,0.2,0,0.5,0.1,0.7c0.1,0.2,0.2,0.4,0.3,0.6
		c0.1,0.2,0.3,0.3,0.5,0.4c0.2,0.1,0.4,0.1,0.6,0.1c0.3,0,0.6-0.1,0.8-0.2c0.2-0.1,0.4-0.3,0.6-0.5l0.6,0.4
		c-0.1,0.1-0.2,0.3-0.3,0.4c-0.1,0.1-0.3,0.2-0.4,0.3c-0.2,0.1-0.3,0.2-0.6,0.2C126.4,56.5,126.1,56.5,125.9,56.5z M125.7,51.8
		c-0.2,0-0.4,0-0.5,0.1c-0.2,0.1-0.3,0.2-0.4,0.3s-0.2,0.3-0.3,0.5c-0.1,0.2-0.1,0.4-0.2,0.7h2.6v-0.1c0-0.2,0-0.4-0.1-0.5
		c0-0.2-0.1-0.3-0.2-0.5c-0.1-0.1-0.2-0.2-0.4-0.3S126,51.8,125.7,51.8z"/>
	<path class="st0" d="M129.8,51.2l0,0.6c0.2-0.2,0.4-0.4,0.7-0.5c0.3-0.1,0.6-0.2,0.9-0.2c0.3,0,0.6,0.1,0.9,0.2
		c0.3,0.1,0.5,0.4,0.6,0.6c0.2-0.3,0.4-0.5,0.7-0.6c0.3-0.2,0.6-0.2,1-0.2c0.3,0,0.5,0,0.8,0.1s0.4,0.2,0.6,0.3
		c0.2,0.2,0.3,0.4,0.3,0.6s0.1,0.5,0.1,0.9v3.5h-0.9V53c0-0.2,0-0.4-0.1-0.6c-0.1-0.1-0.1-0.3-0.2-0.4c-0.1-0.1-0.2-0.1-0.4-0.2
		s-0.3-0.1-0.5-0.1c-0.2,0-0.3,0-0.5,0.1s-0.3,0.1-0.4,0.2c-0.1,0.1-0.2,0.2-0.2,0.4c-0.1,0.1-0.1,0.3-0.1,0.4v3.5h-0.9V53
		c0-0.2,0-0.4-0.1-0.5c-0.1-0.1-0.1-0.3-0.2-0.4c-0.1-0.1-0.2-0.2-0.4-0.2c-0.1,0-0.3-0.1-0.5-0.1c-0.3,0-0.6,0.1-0.8,0.2
		c-0.2,0.1-0.3,0.3-0.4,0.5v3.9H129v-5.3H129.8z"/>
	<path class="st0" d="M139.9,56.5c-0.4,0-0.7-0.1-1-0.2c-0.3-0.1-0.6-0.3-0.8-0.5s-0.4-0.5-0.5-0.8s-0.2-0.7-0.2-1v-0.2
		c0-0.4,0.1-0.8,0.2-1.2c0.1-0.3,0.3-0.6,0.5-0.9s0.5-0.4,0.7-0.5c0.3-0.1,0.6-0.2,0.9-0.2c0.4,0,0.7,0.1,1,0.2
		c0.3,0.1,0.5,0.3,0.7,0.5c0.2,0.2,0.3,0.5,0.4,0.8s0.1,0.7,0.1,1v0.4h-3.6c0,0.2,0,0.5,0.1,0.7c0.1,0.2,0.2,0.4,0.3,0.6
		c0.1,0.2,0.3,0.3,0.5,0.4c0.2,0.1,0.4,0.1,0.6,0.1c0.3,0,0.6-0.1,0.8-0.2c0.2-0.1,0.4-0.3,0.6-0.5l0.6,0.4
		c-0.1,0.1-0.2,0.3-0.3,0.4c-0.1,0.1-0.3,0.2-0.4,0.3c-0.2,0.1-0.3,0.2-0.6,0.2C140.4,56.5,140.2,56.5,139.9,56.5z M139.8,51.8
		c-0.2,0-0.4,0-0.5,0.1c-0.2,0.1-0.3,0.2-0.4,0.3s-0.2,0.3-0.3,0.5c-0.1,0.2-0.1,0.4-0.2,0.7h2.6v-0.1c0-0.2,0-0.4-0.1-0.5
		c0-0.2-0.1-0.3-0.2-0.5c-0.1-0.1-0.2-0.2-0.4-0.3S140,51.8,139.8,51.8z"/>
	<path class="st0" d="M143.8,56.1c0,0.1,0,0.3-0.1,0.5c0,0.2-0.1,0.3-0.2,0.5c-0.1,0.2-0.2,0.3-0.3,0.5s-0.2,0.3-0.4,0.4l-0.5-0.4
		c0.2-0.2,0.3-0.4,0.4-0.7c0.1-0.2,0.1-0.5,0.1-0.7v-0.7h0.9V56.1z"/>
	<path class="st0" d="M148.6,56.5h-0.9v-7.1h0.9V56.5z"/>
	<path class="st0" d="M151,51.2l0,0.7c0.2-0.2,0.4-0.4,0.7-0.6c0.3-0.1,0.6-0.2,0.9-0.2c0.3,0,0.5,0,0.7,0.1s0.4,0.2,0.5,0.3
		s0.3,0.4,0.3,0.6c0.1,0.2,0.1,0.5,0.1,0.9v3.5h-0.9V53c0-0.2,0-0.4-0.1-0.5s-0.1-0.3-0.2-0.4c-0.1-0.1-0.2-0.2-0.3-0.2
		c-0.1,0-0.3-0.1-0.5-0.1c-0.3,0-0.5,0.1-0.8,0.2c-0.2,0.2-0.4,0.4-0.5,0.6v3.8h-0.9v-5.3H151z"/>
	<path class="st0" d="M157.8,55.8c0.2,0,0.3,0,0.5-0.1c0.1-0.1,0.3-0.1,0.4-0.2c0.1-0.1,0.2-0.2,0.3-0.3c0.1-0.1,0.1-0.3,0.1-0.4
		h0.9c0,0.2-0.1,0.5-0.2,0.7c-0.1,0.2-0.3,0.4-0.5,0.6c-0.2,0.2-0.4,0.3-0.7,0.4c-0.2,0.1-0.5,0.1-0.8,0.1c-0.4,0-0.7-0.1-1-0.2
		c-0.3-0.1-0.5-0.3-0.7-0.6c-0.2-0.2-0.3-0.5-0.4-0.8c-0.1-0.3-0.1-0.7-0.1-1v-0.2c0-0.4,0-0.7,0.1-1c0.1-0.3,0.2-0.6,0.4-0.8
		s0.4-0.4,0.7-0.6c0.3-0.1,0.6-0.2,1-0.2c0.3,0,0.6,0,0.8,0.1c0.3,0.1,0.5,0.2,0.7,0.4c0.2,0.2,0.3,0.4,0.4,0.6
		c0.1,0.2,0.2,0.5,0.2,0.8h-0.9c0-0.2-0.1-0.3-0.1-0.5c-0.1-0.1-0.1-0.3-0.3-0.4c-0.1-0.1-0.2-0.2-0.4-0.3c-0.1-0.1-0.3-0.1-0.5-0.1
		c-0.3,0-0.5,0.1-0.7,0.2c-0.2,0.1-0.3,0.3-0.4,0.4c-0.1,0.2-0.2,0.4-0.2,0.6s-0.1,0.5-0.1,0.7v0.2c0,0.2,0,0.5,0.1,0.7
		c0,0.2,0.1,0.4,0.2,0.6c0.1,0.2,0.3,0.3,0.4,0.4C157.3,55.8,157.5,55.8,157.8,55.8z"/>
	<path class="st0" d="M160.9,56c0-0.2,0-0.3,0.1-0.4c0.1-0.1,0.2-0.2,0.4-0.2s0.3,0.1,0.4,0.2c0.1,0.1,0.1,0.2,0.1,0.4
		c0,0.2,0,0.3-0.1,0.4c-0.1,0.1-0.2,0.2-0.4,0.2s-0.3-0.1-0.4-0.2C161,56.3,160.9,56.1,160.9,56z"/>
</g>
</svg>
