<?xml version="1.0" encoding="utf-8"?>
<!-- Generator: Adobe Illustrator 22.0.1, SVG Export Plug-In . SVG Version: 6.00 Build 0)  -->
<svg version="1.1" id="Camada_1" xmlns="http://www.w3.org/2000/svg" xmlns:xlink="http://www.w3.org/1999/xlink" x="0px" y="0px"
	 viewBox="0 0 208.7 51.7" style="enable-background:new 0 0 208.7 51.7;" xml:space="preserve">
<style type="text/css">
	.st0{fill:#BB323C;}
</style>
<g>
	<g>
		<path class="st0" d="M5.2,26.1v20.1h40.2V26.1h5.2L25.3,0L13.9,11.8v-4h0.8c0.5,0,0.8-0.4,0.8-0.8V4.7c0-0.5-0.4-0.8-0.8-0.8H6.5
			c-0.5,0-0.8,0.4-0.8,0.8V7c0,0.5,0.4,0.8,0.8,0.8h0.8v10.7L0,26.1H5.2z M7.7,43.8V26.1L25.3,7.4l17.6,18.7v17.7H7.7z"/>
		<rect x="20.3" y="25.9" class="st0" width="4.3" height="4.3"/>
		<rect x="26.1" y="25.9" class="st0" width="4.3" height="4.3"/>
		<rect x="26.1" y="31.7" class="st0" width="4.3" height="4.3"/>
		<rect x="20.3" y="31.7" class="st0" width="4.3" height="4.3"/>
	</g>
	<path class="st0" d="M67,37.7H56.4L54,44.3h-3.4L60.3,19h2.9l9.7,25.2h-3.4L67,37.7z M57.4,34.9H66l-4.3-11.8L57.4,34.9z"/>
	<rect x="76" y="17.6" class="st0" width="3.2" height="26.6"/>
	<path class="st0" d="M95.9,42.4c-0.6,0.7-1.3,1.2-2.2,1.6c-0.9,0.4-2,0.6-3.3,0.6c-0.9,0-1.8-0.1-2.5-0.4C87.2,44,86.5,43.6,86,43
		c-0.5-0.6-1-1.3-1.3-2.2c-0.3-0.9-0.4-1.9-0.4-3.2V25.5h3.2v12.2c0,0.8,0.1,1.5,0.3,2.1c0.2,0.5,0.5,1,0.8,1.3
		c0.3,0.3,0.7,0.5,1.1,0.7c0.4,0.1,0.8,0.2,1.3,0.2c1.3,0,2.4-0.2,3.1-0.7c0.8-0.5,1.4-1.2,1.7-2V25.5H99v18.8H96L95.9,42.4z"/>
	<path class="st0" d="M103.1,34.7c0-1.4,0.2-2.7,0.5-3.9c0.3-1.2,0.8-2.2,1.5-3c0.6-0.8,1.4-1.5,2.3-1.9c0.9-0.5,1.9-0.7,3.1-0.7
		c1.2,0,2.2,0.2,3.1,0.6c0.9,0.4,1.6,1,2.3,1.8l0.2-2.1h2.9v18.4c0,1.2-0.2,2.3-0.6,3.3c-0.4,1-0.9,1.8-1.6,2.4
		c-0.7,0.7-1.5,1.2-2.5,1.5c-1,0.3-2,0.5-3.2,0.5c-0.5,0-1-0.1-1.7-0.2c-0.6-0.1-1.3-0.3-1.9-0.5c-0.6-0.2-1.3-0.6-1.8-1
		c-0.6-0.4-1.1-0.9-1.5-1.5l1.7-1.9c0.4,0.5,0.8,0.9,1.2,1.2c0.4,0.3,0.8,0.6,1.3,0.8c0.4,0.2,0.9,0.3,1.3,0.4
		c0.4,0.1,0.9,0.1,1.3,0.1c0.8,0,1.4-0.1,2-0.3c0.6-0.2,1.1-0.5,1.6-1c0.4-0.4,0.8-1,1-1.6c0.2-0.6,0.3-1.3,0.3-2.2v-1.6
		c-0.6,0.7-1.4,1.3-2.2,1.6c-0.9,0.4-1.9,0.6-3,0.6c-1.1,0-2.1-0.2-3-0.7c-0.9-0.5-1.7-1.1-2.3-2c-0.6-0.8-1.1-1.9-1.5-3
		c-0.3-1.2-0.5-2.4-0.5-3.8V34.7z M106.4,35.1c0,0.9,0.1,1.8,0.3,2.6c0.2,0.8,0.5,1.5,0.9,2.2c0.4,0.6,0.9,1.1,1.5,1.5
		c0.6,0.4,1.4,0.5,2.2,0.5c0.6,0,1.1-0.1,1.5-0.2c0.5-0.1,0.9-0.3,1.2-0.6c0.4-0.2,0.7-0.5,1-0.9c0.3-0.3,0.5-0.7,0.7-1.1v-8.6
		c-0.2-0.4-0.5-0.7-0.7-1.1c-0.3-0.3-0.6-0.6-1-0.9c-0.4-0.2-0.8-0.4-1.2-0.6c-0.5-0.1-1-0.2-1.5-0.2c-0.9,0-1.6,0.2-2.3,0.5
		c-0.6,0.4-1.1,0.9-1.5,1.5c-0.4,0.6-0.7,1.3-0.9,2.2c-0.2,0.8-0.3,1.7-0.3,2.6V35.1z"/>
	<path class="st0" d="M135.4,42.4c-0.6,0.7-1.3,1.2-2.2,1.6c-0.9,0.4-2,0.6-3.3,0.6c-0.9,0-1.8-0.1-2.5-0.4
		c-0.8-0.3-1.4-0.7-1.9-1.2c-0.5-0.6-1-1.3-1.3-2.2c-0.3-0.9-0.4-1.9-0.4-3.2V25.5h3.2v12.2c0,0.8,0.1,1.5,0.3,2.1
		c0.2,0.5,0.5,1,0.8,1.3c0.3,0.3,0.7,0.5,1.1,0.7c0.4,0.1,0.8,0.2,1.3,0.2c1.3,0,2.4-0.2,3.1-0.7c0.8-0.5,1.4-1.2,1.7-2V25.5h3.2
		v18.8h-3.1L135.4,42.4z"/>
	<path class="st0" d="M151.2,44.6c-1.3,0-2.5-0.2-3.5-0.7c-1.1-0.5-2-1.1-2.7-1.9c-0.8-0.8-1.3-1.8-1.7-2.9
		c-0.4-1.1-0.6-2.3-0.6-3.6v-0.7c0-1.5,0.2-2.9,0.7-4.1c0.5-1.2,1.1-2.2,1.8-3c0.8-0.8,1.6-1.4,2.6-1.9c1-0.4,2-0.7,3.1-0.7
		c1.3,0,2.5,0.2,3.5,0.7c1,0.5,1.8,1.1,2.4,1.9c0.6,0.8,1.1,1.8,1.4,2.9c0.3,1.1,0.5,2.3,0.5,3.7v1.4h-12.7c0,0.9,0.2,1.7,0.4,2.4
		c0.3,0.8,0.6,1.4,1.1,2c0.5,0.6,1.1,1,1.7,1.3c0.7,0.3,1.4,0.5,2.3,0.5c1.1,0,2.1-0.2,2.9-0.7c0.8-0.5,1.5-1.1,2.1-1.8l2,1.5
		c-0.3,0.5-0.7,0.9-1.1,1.3c-0.4,0.4-0.9,0.8-1.5,1.2c-0.6,0.3-1.2,0.6-2,0.8C153,44.5,152.1,44.6,151.2,44.6 M150.8,27.8
		c-0.6,0-1.2,0.1-1.8,0.4c-0.5,0.2-1,0.6-1.5,1c-0.4,0.5-0.8,1-1.1,1.7c-0.3,0.7-0.5,1.4-0.6,2.3h9.4v-0.2c0-0.6-0.1-1.2-0.3-1.9
		c-0.2-0.6-0.4-1.2-0.8-1.6c-0.4-0.5-0.8-0.9-1.4-1.2C152.3,27.9,151.6,27.8,150.8,27.8"/>
	<path class="st0" d="M165.5,25.7l0.1,2.1c0.6-0.8,1.4-1.4,2.3-1.8c0.9-0.4,2-0.6,3.2-0.6c1.2,0,2.3,0.2,3.2,0.7s1.6,1.2,2.1,2.3
		c0.6-0.9,1.4-1.6,2.4-2.2c1-0.6,2.2-0.8,3.5-0.8c1,0,1.9,0.1,2.7,0.4c0.8,0.3,1.4,0.7,2,1.2c0.5,0.6,0.9,1.3,1.2,2.1
		c0.3,0.9,0.4,1.9,0.4,3.1v12.3h-3.2V32.1c0-0.8-0.1-1.4-0.3-2c-0.2-0.5-0.5-0.9-0.8-1.2c-0.3-0.3-0.8-0.5-1.3-0.6
		c-0.5-0.1-1-0.2-1.6-0.2c-0.7,0-1.2,0.1-1.8,0.3c-0.5,0.2-0.9,0.5-1.3,0.8c-0.4,0.4-0.7,0.8-0.9,1.2c-0.2,0.5-0.4,1-0.4,1.5v12.4
		H174V32.1c0-0.7-0.1-1.3-0.3-1.9c-0.2-0.5-0.5-0.9-0.8-1.3c-0.3-0.3-0.8-0.6-1.3-0.7c-0.5-0.1-1-0.2-1.7-0.2
		c-1.1,0-2.1,0.2-2.8,0.7c-0.7,0.5-1.2,1.1-1.6,1.9v13.7h-3.2V25.7H165.5z"/>
	<path class="st0" d="M201.4,44.8c-1.3,0-2.5-0.2-3.5-0.7c-1.1-0.5-2-1.1-2.7-1.9c-0.8-0.8-1.3-1.8-1.7-2.9
		c-0.4-1.1-0.6-2.3-0.6-3.6V35c0-1.5,0.2-2.9,0.7-4.1c0.5-1.2,1.1-2.2,1.8-3c0.8-0.8,1.6-1.4,2.6-1.9c1-0.4,2-0.7,3.1-0.7
		c1.3,0,2.5,0.2,3.5,0.7c1,0.5,1.8,1.1,2.4,1.9c0.6,0.8,1.1,1.8,1.4,2.9c0.3,1.1,0.5,2.3,0.5,3.7V36H196c0,0.9,0.2,1.7,0.4,2.4
		c0.3,0.8,0.6,1.4,1.1,2c0.5,0.6,1.1,1,1.7,1.3c0.7,0.3,1.4,0.5,2.3,0.5c1.1,0,2.1-0.2,2.9-0.7c0.8-0.5,1.5-1.1,2.1-1.8l2,1.5
		c-0.3,0.5-0.7,0.9-1.1,1.3c-0.4,0.4-0.9,0.8-1.5,1.2c-0.6,0.3-1.2,0.6-2,0.8C203.1,44.7,202.3,44.8,201.4,44.8 M201,28
		c-0.6,0-1.2,0.1-1.8,0.4c-0.5,0.2-1,0.6-1.5,1c-0.4,0.5-0.8,1-1.1,1.7c-0.3,0.7-0.5,1.4-0.6,2.3h9.4v-0.2c0-0.6-0.1-1.2-0.3-1.9
		c-0.2-0.6-0.4-1.2-0.8-1.6c-0.4-0.5-0.8-0.9-1.4-1.2C202.5,28.1,201.8,28,201,28"/>
</g>
</svg>
