<?xml version="1.0" encoding="utf-8"?>
<!-- Generator: Adobe Illustrator 22.0.1, SVG Export Plug-In . SVG Version: 6.00 Build 0)  -->
<svg version="1.1" id="Camada_1" xmlns="http://www.w3.org/2000/svg" xmlns:xlink="http://www.w3.org/1999/xlink" x="0px" y="0px"
	 viewBox="0 0 62.1 56.9" style="enable-background:new 0 0 62.1 56.9;" xml:space="preserve">
<style type="text/css">
	.st0{fill:#FFFFFF;}
</style>
<g>
	<g>
		<path class="st0" d="M6.4,32.1v24.8h49.3V32.1h6.4L31.1,0L17,14.5V9.6h1c0.6,0,1-0.5,1-1V5.8c0-0.6-0.5-1-1-1H8c-0.6,0-1,0.5-1,1
			v2.8c0,0.6,0.5,1,1,1h1v13.2l-9,9.3H6.4z M9.5,53.8V32.1l21.6-23l21.6,23v21.8H9.5z"/>
	</g>
	<g>
		<rect x="24.9" y="31.9" class="st0" width="5.2" height="5.3"/>
	</g>
	<g>
		<rect x="32" y="31.9" class="st0" width="5.2" height="5.3"/>
	</g>
	<g>
		<rect x="32" y="39" class="st0" width="5.2" height="5.3"/>
	</g>
	<g>
		<rect x="24.9" y="39" class="st0" width="5.2" height="5.3"/>
	</g>
</g>
</svg>
